<?xml version="1.0" encoding="utf-8"?>
<!-- Generator: Adobe Illustrator 15.1.0, SVG Export Plug-In . SVG Version: 6.00 Build 0)  -->
<!DOCTYPE svg PUBLIC "-//W3C//DTD SVG 1.1//EN" "http://www.w3.org/Graphics/SVG/1.1/DTD/svg11.dtd">
<svg version="1.1" id="Camada_1" xmlns="http://www.w3.org/2000/svg" xmlns:xlink="http://www.w3.org/1999/xlink" x="0px" y="0px"
	 width="113px" height="60px" viewBox="0 0 113 60" enable-background="new 0 0 113 60" xml:space="preserve">
<metadata><?xpacket begin="﻿" id="W5M0MpCehiHzreSzNTczkc9d"?>
<x:xmpmeta xmlns:x="adobe:ns:meta/" x:xmptk="Adobe XMP Core 5.0-c060 61.134777, 2010/02/12-17:32:00        ">
   <rdf:RDF xmlns:rdf="http://www.w3.org/1999/02/22-rdf-syntax-ns#">
      <rdf:Description rdf:about=""
            xmlns:xmp="http://ns.adobe.com/xap/1.0/"
            xmlns:xmpGImg="http://ns.adobe.com/xap/1.0/g/img/">
         <xmp:MetadataDate>2016-09-26T19:54:22-03:00</xmp:MetadataDate>
         <xmp:Label>Approved</xmp:Label>
         <xmp:Thumbnails>
            <rdf:Alt>
               <rdf:li rdf:parseType="Resource">
                  <xmpGImg:width>256</xmpGImg:width>
                  <xmpGImg:height>164</xmpGImg:height>
                  <xmpGImg:format>JPEG</xmpGImg:format>
                  <xmpGImg:image>/9j/4AAQSkZJRgABAgEASABIAAD/7QAsUGhvdG9zaG9wIDMuMAA4QklNA+0AAAAAABAASAAAAAEA&#xA;AQBIAAAAAQAB/+4ADkFkb2JlAGTAAAAAAf/bAIQABgQEBAUEBgUFBgkGBQYJCwgGBggLDAoKCwoK&#xA;DBAMDAwMDAwQDA4PEA8ODBMTFBQTExwbGxscHx8fHx8fHx8fHwEHBwcNDA0YEBAYGhURFRofHx8f&#xA;Hx8fHx8fHx8fHx8fHx8fHx8fHx8fHx8fHx8fHx8fHx8fHx8fHx8fHx8fHx8f/8AAEQgApAEAAwER&#xA;AAIRAQMRAf/EAaIAAAAHAQEBAQEAAAAAAAAAAAQFAwIGAQAHCAkKCwEAAgIDAQEBAQEAAAAAAAAA&#xA;AQACAwQFBgcICQoLEAACAQMDAgQCBgcDBAIGAnMBAgMRBAAFIRIxQVEGE2EicYEUMpGhBxWxQiPB&#xA;UtHhMxZi8CRygvElQzRTkqKyY3PCNUQnk6OzNhdUZHTD0uIIJoMJChgZhJRFRqS0VtNVKBry4/PE&#xA;1OT0ZXWFlaW1xdXl9WZ2hpamtsbW5vY3R1dnd4eXp7fH1+f3OEhYaHiImKi4yNjo+Ck5SVlpeYmZ&#xA;qbnJ2en5KjpKWmp6ipqqusra6voRAAICAQIDBQUEBQYECAMDbQEAAhEDBCESMUEFURNhIgZxgZEy&#xA;obHwFMHR4SNCFVJicvEzJDRDghaSUyWiY7LCB3PSNeJEgxdUkwgJChgZJjZFGidkdFU38qOzwygp&#xA;0+PzhJSktMTU5PRldYWVpbXF1eX1RlZmdoaWprbG1ub2R1dnd4eXp7fH1+f3OEhYaHiImKi4yNjo&#xA;+DlJWWl5iZmpucnZ6fkqOkpaanqKmqq6ytrq+v/aAAwDAQACEQMRAD8A9U4q7FXYq7FXYq7FVlxc&#xA;QW0ElxcSLDBCjSTSuQqoiirMzHYAAVJxV8v/AJnf85TarcXU+meRwtpZRkodYlQPNLTasKOCsaHs&#xA;WBb/AFcVeGax5l8w61MZtY1O61CQmvK5mkl+7mTT6MVQMFxcW8qzW8rwyruskbFWHyIocVZ55U/P&#xA;f8zvLciehrEl/ar1s9RJuoyPAM59Rf8AYuMVfQX5df8AOTflHzG8VhryjQNVchUaR+VpIx/lmIHp&#xA;18H2/wAo4q9lVlZQykFSKgjcEHFW8VdirsVdirsVdirsVdirsVdirsVdirsVdirsVdirsVdirsVd&#xA;irsVdirsVdirsVfOn/ORv506Bc6BceTvLt79bvbiVU1S5g3hSFDyaESg/EzMFB41FKgntirAPyU/&#xA;IW888j9M6vJJY+Wo2Ko8dBNdOpoyxFqhUX9pyDvsO5Cr6c0H8pPy10OFY7Dy7ZckpSe4iW5mJHf1&#xA;ZvUf8cVTHUPIXkjUYjFfaBp1wpFPjtYSR8m41H0Yq8p88f8AOKflLU43uPK076JfdVtpC09ox8KM&#xA;TIlfEMQP5cVfNXnPyH5p8m6l9Q1+xe1dqmCYfHDMoP2opB8LfLqO4GKsy/Kv8/fNPklotPu2bVvL&#xA;oopsJW/eQr428h+z/qH4fl1xV9b+TPPXlnzlpK6noN4txFsJoT8M0LkfYljO6n8D2JGKp/irsVdi&#xA;rsVdirsVdirsVdirsVdirsVdirsVdirsVdirsVdirsVdirsVdir58/5yk/NG90qCDyZo87QXF9F6&#xA;+rzxmjC3clUgBHT1KEv7UHRjirDvyK/5x+TzRbx+ZfNAePQix+pWCko91xNC7sKFYq7Cm7ew6qvq&#xA;2wsLLT7KGxsYEtrO2QRwW8ShURFFAqqNgMVSzzf5w0HyjoU+ta3cehaQ7KooZJZD9mKJajk7U2H0&#xA;mgqcVfP+s/8AOXet1MukeWoobItxhnvJJJOdD3EYjUHY7BjiqN8u/wDOYFpJOsXmLQWghJobqxl9&#xA;Qj5wyBP+J/Rir2C2v/y8/M/yzJHG9trmkzbTQNUSRPTbkp4ywyDsdj4Yq+a/zZ/5xw13ysJtX8u+&#xA;pq2gLV5IwOV1bL39RVH7xB/Oo27gDfFXl/ljzX5g8r6tHquhXslleR7ckNVde6SIaq6nwYYq+sfy&#xA;p/5yL8u+bRDpmueno/mFqKqs1LW4Y7fuXY/CxP7DH5FsVewYq7FXYq7FXYq7FUm8yec/KnlmAT69&#xA;qtvpykckSZwJHA/kjFXf/Yg4q8l8xf8AOW3kmydo9F0671d16StxtIW+TOHk++PFWIn/AJzE1v1q&#xA;r5bthB/IbiQv/wAHwp/wuKvQPIf/ADk55J8yXcWn6pC+gX8xCxfWHWW2ZiaBROAnE/66KPfFXsOK&#xA;uxV2KuxV2KuxV2KuxV2KuxV2KuxV8J/mNfP5u/OPVKOWS81QWEDrv+6jkFrGV+aoDir7msbK1sbK&#xA;CytIxDa2saQwRLsFjjUKqj5AYqrYqsmghmThNGsiVrxcBhX5HFV0kaSIySKHRhRlYVBB7EHFXm3n&#xA;v/nH/wDL3zXBI8dkmjao1Sl/Yosfxf8AFkI4xye+wb/KxV8ya95a/Mf8nPNcV1HM9q9T9R1S3q1t&#xA;cxg1KMD8J/yo3Hv0ocVfSX5P/nvonnqFNOvwmm+Z0X47MmkVxQfE9sWNfcofiH+UBXFUs/Nf/nHD&#xA;QfNPr6t5d9PSNferyJSlpcMdz6iqP3bn+dR8weuKvlTzN5U8w+V9UfTNdsZLG8Tosg+F1rTnG4qr&#xA;r/lKSMVZ9+XX/ORPnfyisVldsNb0aOii0umIljUdoZ/iZfkwYeAGKvojyh/zkN+WXmNER9RGj3rb&#xA;G11GkO/tNUwn2+Ovtir0e2ura6hWa2lSeF91ljYOp+TLUYqvZlRS7kKqirMdgAOpJxVgfm/88vy1&#xA;8rI63erR3t4laWGnlbmao/ZbifTQ/wCuy4q+fvPX/OUnnTW/UtfLyLoFg1R6qES3bqdt5SOMf+wW&#xA;o/mxV5BJLqmr6gXkefUNRum3Zi800jn3PJmOKvTPKf8AzjT+ZuvKk91ax6JaPQ89QYrKR7QIGkB9&#xA;nC4q9O0r/nD7y9HGv6W8wXdzLsX+qRRW6+4HqfWPv/DFUB5q/wCcQoUs5JvK2tSSXSAlLPUFSkn+&#xA;SJognE/NKfLFWd/848eY/MV15dv/ACx5ljli13ytMlrKs/8Ae/V5VLQcj3pwZVboVA64q9XxV2Ku&#xA;xV2KuxV2KuxV2KuxV2KvD/zg/wCcj9H8vw3Gi+VJU1HXiDHJeoQ9tancE8ukki9lHwg9TtxxV5h/&#xA;zj3+Umt+YvMtl5t1KN4dC024F1FPL9q6uYmDoEB3Kq9C79O3WtFX1/irsVdirsVdiqV+ZvLGh+Zt&#xA;Hn0fWrVLuxuBRkYbq1CA6N1V1rsw3xV8X/mt+UvmD8t9ainjlkn0iaTlpmrR1RldfiEchX7Eq0qK&#xA;fa6juAq9T/KH/nJ1WEGh+e5OLCkdvrwGx/lF0o6eHqD/AGQ6tir3XzH5W8qectGW01e1g1PT5lEl&#xA;vKCCV5CokhlQ8lqP2lO49sVfNX5hf84reZNLkkvPKEv6Z0/dvqUpWO8jHgCeMctB4cT4LirxPU9K&#xA;1TS7t7PU7Sayu0+3BcRtE47bq4BxVZaahf2TFrO5ltmPVoXaMn6VIxVUu9X1a8QJeXs9yg6LNK7g&#xA;fQxPhiqN8ueTfNXmW4EGhaVc6g9eLNDGTGpP88hoifNiMVe3+Sf+cSdSnMdz5x1FbOLYnTrEiSY+&#xA;zzMDGh/1Q3zxV795R/Lzyb5RtxFoGlw2j8eMlzTncOO/OZ+Tn5Vp7YqjfMHmzyz5dtvrOu6nbadE&#xA;QSn1iRUZ6deCE8nPsoOKvKfMH/OWH5e2DPHpVteaxIv2ZEQW8J/2UpEn/JPFWIy/85j3XrVi8qoI&#xA;a/Za9JYj5iAAfdirLfJv/OUX5f6vfCLV7OTy9e3PFGupOM1ueNeCvOgRxTkaFkCjxGKva45EkRZI&#xA;2DxuAyOpqCDuCCMVbxV2KuxV2KuxV2KuxV2Kvnf/AJyv82+c9LGmaRYTPZ+XtShc3U8NVeaZWo0L&#xA;uNwgQqeI+1U1rTFWFf8AOOf5V+UPOF3c6lr14ly+nSD09ABKs4oCJpuhaKppxXqR8W2xVfXUEEFv&#xA;DHBBGsMEShIoowFRVUUCqo2AA7YqvxV2KuxV2KpP5st/NdxossXla7tLLVyf3c99E8sQWhqAEI4t&#xA;WlGKsP8AJOKvAJ/z9/NjyHr/AOiPzA0eC8j6iaJfQeRK09SCVawyL7cB4GhxV7JovmLyB+avlO4g&#xA;gZNQ0+4QR3+nzDjPCx3HNK8kYEVV1NKiqnFXyt+cf5K6x5C1Bru2V7zyxcPS0v8Aq0ZbpDPTow7N&#xA;0btvUBVBflt+dPnHyJKsNnN9d0YtWXSbkkxbmpMTfaib/V28QcVfUvkD89vIPnFYoIbsabqzkL+j&#xA;L0rHIzHtE9eEte3E8vEDFWcapouj6tB9X1Wwt9Qg/wB83USTJv8A5MgYYqxC5/Ir8pLiT1JPLVqr&#xA;HtGZYl/4GN1X8MVROm/k3+VunOHtvLNiXU1Vp4vrBB61HrepirL4YIYIlhgjWKJBRI0AVVA7ADYY&#xA;qwTzl+eX5b+VBJHeaol7fpX/AECwpcS8h+yxU+nGf9dhirwTzv8A85U+ctX9S18uQJoVk3wifaa7&#xA;I/12HBK/5K1H82KvGr2+1PVb1rm9uJr6+nYBppnaWV2Ow+JizE4qzzyr/wA4/wD5o+Y0SaLSjp1p&#xA;JTjdai31ZaHcH0yGmI9wmKvSdN/5w6u2QNqfmeOJ6fFFbWrSCvs7yR/8QxVLfNH/ADiN5msrZ7jy&#xA;/q8OrugLC0mj+qSsP5UYvJGT/rFRirLv+cX/ADjrX+5TyBrwljvdFX1rKG4DCWKIMI5oGDbhY3ZS&#xA;o/yj2AxV77irsVdirsVdirsVdirsVeV/85Lapplh+Vd4l9ZC9e+nitbKo2huGDOs1RuvBY2p4nY7&#xA;E4q+ef8AnG+0Nx+bukMLtLX6ulxLxYkNMBCy+klOrHlWh/ZB+WKvtrFXYq7FXYq7FXYqkHnfyP5e&#xA;856HLo+tW4licEwTqAJoJKbSRMQeLD7j0NRir451/QvPv5M+d0ktrh4JRVrDUYwfQu7eoqrqag9u&#xA;cbdD/sWxV9O/ln+aPlf80fL89jd28S6isXDVtGmAdHRgA0kYavOIn6V6HsSq8g/NT/nF7UrCSbVf&#xA;I6tfWBq8mjs1biIdT6LN/er4Kfj/ANbFXgdza3NrcSW11E8FxExWWGVSjqw6hlahBxVl/lj85PzK&#xA;8tIsOma5ObVdltbmlzEB4KswfgP9SmKs8sv+ct/zDhj4XOnaZckDaT0542Pz4y8fuAxVq/8A+ctv&#xA;zEni4Wthplmx6yiKaRh8ucpX71OKvO/M/wCan5heZ1aPWdcuZ7d/tWsbCCA/OKEIh+kYqkejaFrW&#xA;t3i2Wj2M+oXTdIbaNpWArSpCg0HudsVe1+R/+cT/ADLqJjuvNl4mj2hoTZQFZrth4FhWKP51f3GK&#xA;voLyZ+VfkTyeinRNKijuwKNfzfvrk+P716la+C0Htiqc675o8uaBAJ9b1O206I/YNzKkZan8oY1Y&#xA;/LFXm2sf85R/lTYMy2095qhXatpbkAn2NwYMVSRP+cvfIxcB9H1NUr8RC25IHsDKP14qyTyV5u/K&#xA;Lzr52h8z6LeGDzUtpJZyWU3+jyzRMVarIarK0YTYo5oOvQUVep4q7FXYq7FXYq7FXYq7FXjn/OUu&#xA;pa9aflz6On2aT6ddzrFq106LJ6EdQYyAwPHnJQc+3QbkYq+fPyCg06f82tAjvreS4X1mkt1iJHGe&#xA;KNpI5GpuVQpyI+/aoxV9zYq7FXYq7FXYq7FXYqx3z55E0Hzt5fm0XWI6xt8dtcJT1YJgCFkjJ7iu&#xA;46EbHFXxb5q8q+c/ys85RqZXtb22czaXqsFQk0Y25pWo6Gjofkag7qvo38pP+cjdC80Rw6V5keLS&#xA;fMGyJIx4WtyexRm/u3P8jHf9knoFXoXnD8t/JXm+Hhr+lQ3UoFI7sAx3CeHGZOL09q09sVeNa9/z&#xA;h9psjtJoHmCW3X9m3vYVm/5KxmKn/AHFWNH/AJxB861NNa00jsT64/5l4qmOmf8AOHmpsynVPMkE&#xA;K/tLbW7yk+wZ3ip92Ks/8uf84ufllpRWS/S51qdaE/W5eEVR4RwiPb2Ytir1HS9G0XRbP6tpdlb6&#xA;daJuYreNIUFB1IQKPpxVgXnX/nIX8t/LAeFb79MaguwtNP4ygHp8c1fSX3+In2xV4D50/wCcnfzC&#xA;171INKdPL9g+wW0+K5K/5VwwqD7xqmKvJ7u8vr+6a4u55bq6lNXmlZpJGJ8WYknFWY+XPyU/M/zC&#xA;qS2Gg3Eds+4ubvjax8T+0PWKFh/qg4qzOH/nEr8zJIg73mkwsesTzzlh/wABA6/jirEvNn5PfmZ5&#xA;F4areWTrbWzrImq2EnqpE6mquWSkkVDSjMo3xV9SfkT+Y83nnyUlxfsDrOnP9U1FgAPUYKGjmoNh&#xA;6i9f8oHtir0bFXYq7FXYq7FXYq7FXkP/ADlNc3UX5UzRw19O4vbaO5oCf3YLSCtP+LEXFXzz+RXn&#xA;ry95K88HV9dhkktHtJbaOWJQ7wyOyMJOJIr8KMm382KvoS4/5yp/KuJqRtf3AqRyjtqDbv8AvHTr&#xA;iqDH/OW/5amTh9Q1cLWnqGC2408f96OX4Yqnejf85KflNqUixPqUunyPsovIJEWvu6CRF+lsVelW&#xA;V9Y39rHd2NxFd2kw5RXEDrJG48VdSVP0Yqr4q7FXYq7FWP8AnfyN5d856JJpGt2/qwtVoJ1oJoJK&#xA;UEkT0PFh9x6EEYq+M/zQ/J7zP5Bvj9ajN5osjUtNWiU+m1eiSjf05P8AJPXsTiqO8if85AfmF5Rj&#xA;jtEul1TSo9lsb4GTgvhHKCJF9hyKjwxV7PoX/OXPky5RV1nSr3Tpz9ow8LqIf7KsT/8ACYqyqH/n&#xA;JP8AJyROT648JrTg9neE/P4InH44ql2of85TflTaoWgmvb9uyW9sVP8AyXMIxVgfmP8A5zAvHV4v&#xA;LmgJCf2LrUJTIf8AkTFwof8AnocVeO+bvzV8/ebeSa3rE0tq3/HlFSG3p1FYowqtTxapxVj2maVq&#xA;eq3iWWmWk17eS/3dvbo0kh+SqCcVe2eRv+cUfNGp+ndearpdFtDQ/VIuM12wPY0Jjj+9j4rir6B8&#xA;mflJ5A8nqjaPpUf1xeuoXA9a5J8RI/2PkgUYqzDFXYqtliilieKVFkikUrJGwDKysKEEHYgjFWBf&#xA;l3+VcHkjzR5lvdMmVdC1r6vJaaeK8oJI/UMi7inAGT4PbY9N1Wf4q7FXYq7FXYq7FXYql3mHy9pH&#xA;mHRrrRtXtxdafeLwmiJI6GoIIoVZSAQR0OKvGbj/AJxD8kPcc4NY1KKAkkxMYHIr0Af016e4xVE2&#xA;v/OI/wCXMdDPqGqztvUerAi/cIK/8NiqYD/nFn8qQgUxXxIFOZuTUnx2Wn4YqxzzF/ziF5dlgZvL&#xA;2tXVpc0qsd6EniJ8OUawso9/ixV5x5X1nz7+R3neHT9ejddEvHBvLdGMltPCSFNxbnp6idegb9lu&#xA;uKvsWCeG4gjngdZYZlEkUimqsrCqsCOoIxVfirsVdirsVUbyys721ltLyCO5tZ1KTW8yh43U9VZW&#xA;BBHzxV4P59/5xP0XUJJL3yhefoqdqsdOueUlqSf5JBykjH/Be1MVeMaz+QH5s6VIyvoMt3GD8M1k&#xA;yXCtvSoVGLj6VGKscm/L7z9AwWby1qsTEVAeyuVJH0piqIsvyt/Mm9Ki38r6oQ32Xa0mjQ70+26q&#xA;v44qzDQ/+cY/zW1Mqbmzt9Jib/dl5Olaf6kHrP8AQQMVeqeVP+cSPLFmUm8y6nPqsgoTa24+rQe6&#xA;s1XlYe4ZcVez+XfKflry3Z/U9C02306D9oQIFZyO7v8Abc+7EnFU1xV2KuxV2KuxV2KuxV2KuxV2&#xA;KuxV2KuxV2KuxV2KuxV2KsU/M38v9N88+U7rRroKl1QyaddkVMFwo+Bh34n7LDupxVQ/J6HXbb8t&#xA;tEstetpbTVLGJrSaCYUYJBI0cX0GJVpirMsVdirsVdirsVdirsVdirsVdirsVdirsVdirsVdirsV&#xA;dirsVdirsVdiryWX/nJ/8rIZXillvUljYo6NasCGU0IO/Y4q9K8v67puv6LZ6zpkhlsb6JZoHI4n&#xA;i3ZgehB2I8cVTDFUm81ecvLPlPThqPmG/SwtGcRo7hnZ3O/FI4w7sab/AAjFWPaF+eX5Va7qkGl6&#xA;br0cl9csEt4pIbmAO52Ch5oo05HoBXfFWdYq7FXnvnH89vy+8pa7Noer3E41CBUeZIYTIq+oodQS&#xA;D14kHFU88ifmH5d88afcahoJme1tpvq8kk0Ri/ecQ5C160VhXFUN5y/NnyB5OmFtruqpDelQwsol&#xA;eaah6FkjDcK9udK4qxL/AKGk/Kf/AJaLz/pGb+uKu/6Gk/Kf/lovP+kZv64q7/oaT8p/+Wi8/wCk&#xA;Zv64q7/oaT8p/wDlovP+kZv64qz7yV520Pzlov6Z0UytYmV4Q0yGNi0dOVAe2+KsB/6Gk/Kf/lov&#xA;P+kZv64q9Xs7qK7tILuGphuI1ljJFDxdQwqPkcVVcVdirsVeU3n/ADk1+Vtpdz2k094JreRopALZ&#xA;iOSMVNDXxGKvS9H1W01fSLHVbMsbTULeK6tiw4sY5kEiVHY8WxVF4q7FXYq7FXYq8982fn1+Wnlj&#xA;VpNJv9Rea/gJW5itImmETDYo7j4eQ7rWo70xVJ4/+covymeRVa6u41YgF2tXoPc8eR+4Yq9P0jV9&#xA;M1jToNS0u5jvLC5XnBcRNyRhWnXxB2I7HFUXirsVfD3/ADkH5X/w/wDmlqyRpwtdTK6lbeBFxUy0&#xA;9hMJBir3L/nE/wA0nUfI13oUr8p9EuT6S+FvdVkT/kqJMVe34q+O/wDnKPzf+mfzCGkQycrPQIRb&#xA;0Bqv1iWkkzD5Dgh91xV4/BPNbzxzwuY5omDxSLsVZTVSPkcVfoP5E8zReaPJ2ka/GRW/tkkmA6LM&#xA;PgmUf6sisMVTm5uYLW2lubhxHBAjSSyHoqIOTMfkBir89POPmGfzH5q1XXZqhtRuZJ1U/sozfu0/&#xA;2CUX6MVfZn5UaCfJn5QWKtF/piWcmp3aHYmaVTNwandV4p9GKviXVdUvtV1K61O/lae9vJWmuJm3&#xA;LO5qTir1LTf+cXvzPv8AT7a9X6jAtzGsqwzTsJFDjkA4WNgDQ774qif+hUPzQ/37pv8A0kSf9UsV&#xA;d/0Kh+aH+/dN/wCkiT/qlirh/wA4ofmhX+90we/1iT/qlir6c/LbyZH5M8l6b5eWQTy2iM1zOoID&#xA;zSuZJCK78eTUX2xV+fuKv0W8s/8AKN6T/wAwdv8A8mlxVMsVdirsVfnV5m/5STVv+Yy4/wCTrYq+&#xA;8Pyy/wDJbeU/+2Np/wD1Cx4qyXFXYq7FXYqwz83/AD0vkryHqGrxsBfuPqumKab3MwIQ0PXgAXI8&#xA;FxV8L6bp2p63q9vYWiPdalqEyxRKTVnllalSx9zUk4qyf8xvyl82fl+9kNbEEsN+rGC5tHeSLmlO&#xA;UbF0jIcAg9KHsTvir1L/AJxO8/8A1XU7zyXeyn0b4G70rkdhPGv76NQf50HP/YnxxV9RYq7FXz9/&#xA;zl15WFz5f0jzLClZdPnazuWHX0bgckLeyyR0/wBnirzL/nGTzR+hvzOt7KV+NrrcL2Tg/Z9X+8hP&#xA;z5pwH+tir688ya7aaB5f1HWrv/efTreS4kWtC3pqWCj3Y7D3xV+e17d6jresz3c1bjUdTuGlk4ip&#xA;eadyxoP8pmxVmH5w/lpL5C12wseRkgvLC3n9XqpuFQR3Kg/8ZVLDwDDFXs//ADiL5t+saLq3lad6&#xA;yWMgvbNSd/Rm+GVVHgkig/N8VZt/zkb5q/QH5X6hHG/G71hl02Ch34zVM23h6KuPpGKvk/8AK3yq&#xA;fNPn/RdFZOdvPcK94KVH1eH97NX5ohHzOKvuzzMAPLWqgdPqVx/yabFX504q+6dP/Or8qo7C2jfz&#xA;LZq6RIrKWbYhQCPs4qiP+V3flP8A9TNZ/wDBN/zTirv+V3flP/1M1n/wTf8ANOKsytLq3u7WG7tp&#xA;BLbXCLLDKvRkcBlYfMHFVXFX5r4q/Rbyz/yjek/8wdv/AMmlxVMsVdirsVfnV5m/5STVv+Yy4/5O&#xA;tir7w/LL/wAlt5T/AO2Np/8A1Cx4qyXFXYq7FXYq+P8A/nKHz5+nfOq+X7SXlp2gAxSBfsteP/fH&#xA;39MAJ7EN44qn3/OJvkEXep3nnS8jrDYcrPTK953UGaQf6kbBR/rHwxV7f+b3kZfOnkPUdHRFa/Vf&#xA;rOmM3a5hBKCvbmKoT4Nir4a0bVtS0DXLTVLMmDUNNnWaPkCCJImrxYbbbUYYq/QPyp5jsfMvlvTt&#xA;dsSDbahAsyqDXgxFHjJ8UcFT7jFU1xVjv5ieWE80eSNZ0IgGS8tnFvXcCdP3kLfRKqnFXwJpt/d6&#xA;VqlrqFufTu7CeOeEn9mSFw61+TLir6b/AOck/wAxrW5/LLQ7TTnoPNYivGWtSLSNVm4mnQ+qyfcc&#xA;VeW/842+T/8AEP5lWl1MnKx0Nf0hMSNvVQgW618fVIf5KcVe3/8AOUvlD9Mfl+uswx8rzQJhNUCp&#xA;+rTUjmH0Hg59lxV87/kl5s/wx+Zej3zvwtLmX6jekmg9G5+Dk3sjlX+jFWe/85beaTe+b9O8uxPW&#xA;HSLb1p1H/LRdUah+USIR/rYqmn/OIXlX1L3WvNMyVWBF06zY/wA70ln+lVEY/wBlir6K8zf8o3q3&#xA;/MHcf8mmxV+dOKvSIv8AnHX845Yklj8v1SRQyH65YioIqOs+Krv+hcfzn/6l7/p8sf8Aqvirv+hc&#xA;fzn/AOpe/wCnyx/6r4q+yfKlldWHlbRrG7T07q1sbaC4jqG4yRwqrrVSQaEdjiqa4q/NfFX6LeWf&#xA;+Ub0n/mDt/8Ak0uKplirsVdir86vM3/KSat/zGXH/J1sVfeH5Zf+S28p/wDbG0//AKhY8VZLirsV&#xA;dirFvzN86weTPJWpa89GuIU9OxiPR7mT4Ylp4Bvib2BxV8GW8Go6xq0cEYe61HUZwiDq8k0z0H0s&#xA;zYq+/vInlO08peUtM8v21GFjCFmlUU9SZvilk/2UhJxVPsVfGP8Azkp5F/w35/l1G2j4aZr4a8hp&#xA;0WeoFyn/AAZD/wCyxVnP/OJfnwK1/wCSryX7db7Sgx7gAXES/RRwP9Y4q+lcVdir4W/PXysPLn5n&#xA;6zaxpwtbyT6/adhwuvjYD2WTmo+WKsO1HWtS1G20+3vJTJFpdv8AVLNT+zF6ry0/4KU/RQdsVfW/&#xA;/OLnk/8AQv5fHV5043mvym4qeot4qxwg/P43Hs2KvWdW0y01TS7vTLxOdpewyW86eKSqUYb+xxV+&#xA;efmPQ7vQdf1HRbv/AHo064ktpD2JjYryHswFRiqzXdc1LXdWuNW1OUz310waaU9+KhR9yqBir7g/&#xA;JPyr/hn8tNFsJE4Xc8P128B6+rc/vCre6KVT6MVZP5m/5RvVv+YO4/5NNir86cVfo5o00U2j2M0L&#xA;iSKW3ieN1NQysgIIPuMVRmKuxV2KuxV+a+Kv0S8pTw3HlXRpoHWSKSxt2R1NQQYl3BGKptirsVdi&#xA;r86vM3/KSat/zGXH/J1sVfd35WyxS/lp5UaNw6jSLFCVNRyS3RWG3cMCDirJ8VdirsVfJv8AzlX5&#xA;8OqeZ7fypaS8rHRR6t2FOzXkq9D2/dRmnzZhirxLTtRv9Nvob+wne1vLducFxEeLo3ipHQ4qyX/l&#xA;bv5of9TTqf8A0kyf1xV3/K3fzQ/6mnU/+kmT+uKpZr3nXzb5ghig1zV7rUooGLwpcytIFYihK8ia&#xA;bYqo+VvMd/5a8xafrunml1p8yzIK0DAbPG1P2XQlW9jir9BNA1qx1zRLHWLBudnfwJcQnaoWRQaG&#xA;n7S9CPHFUfir52/5y98q+rpujeaYU+O2kbT7th19OWskJPsrK4/2WKvnbyn5euvMfmXTNCtaibUb&#xA;iOAMBXgrN8bn2Rasflir9CtOsLXTtPtdPtE9O0s4kt7eMfsxxKERfoUYqiMVfJf/ADlj5R/R3nKz&#xA;8xwpS31uDhOw/wCWm1AQ18OURSnyOKvN/wAqvKg81fmBouiunO1luBLer2+rwgyyg+HJEK/M4q+/&#xA;AABQdMVWTQxTQvDKoeKVSkiHoVYUIPzGKvhX80fyl8x+RtbuYpbWWfQ2dmsNURS0TREkosjgUSQD&#xA;ZlP0VG+KsTt9e1y2hWC31G6hhTZIo5pFUVNdlBAGKqn+JvMn/V2vP+kiX/mrFXf4m8yf9Xa8/wCk&#xA;iX/mrFXf4m8yf9Xa8/6SJf8AmrFX2J/zjh5s1LzJ+WkMmpTtdXmnXMtg9xIS0jrGqSJzY/aISULX&#xA;28cVfMP5rflhrvknzJexS2kh0SSZn03UFQmF4XNUQuBxDqDxZT+qmKsUttd1u1hWC21C5ghWvGKO&#xA;aRFFTU0VSBiqr/ibzJ/1drz/AKSJf+asVd/ibzJ/1drz/pIl/wCasVfQv/OJvnTXL+81ry/qN5Ne&#xA;W8cKXtp67tIYiH9OQKWJIVuamniPc4q8y/O78sNe8qeb9SvRaSyaBf3ElzZX6IWiUTMXMTsKhWQk&#xA;rRuoFcVYDa61rNpF6Npf3FvCCSI4pXRanqaKQMVVv8TeZP8Aq7Xn/SRL/wA1Yq7/ABN5k/6u15/0&#xA;kS/81Yq+kPygu7ryN+UOr/mF5huZ7m5vl5abb3MrvyjQmO3VQxNPWmYkkfsUOKvmS+vbzUb+4vbp&#xA;2mvLyV5p5DuzySMWY/MscVfc35K+RB5M8gWGnTRhNTuh9c1T+b15QDwP/GNAqfRirOsVdiriAQQR&#xA;UHYg4q+Dvzk8inyX5+1DSokK6dMRd6YT0NvMSQo/4xsGj/2OKvaf+cTPPguNPvvJd5L+9sybzSwx&#xA;6wuaTxr/AKshD0/yj4Yq+gby+sbKIS3lxFbRM3ESTOsaliCaVYgVoMVQn+JvLf8A1drP/pIi/wCa&#xA;sVTFWV1DoQysKqw3BB6EHFUDPr+hW8rQz6laxTIaPG80asp8CC1RiqpaaxpF5IY7O+t7mQCpSGVJ&#xA;Gp40UnFUXiqT6n5y8oaVMYdU1zT7CZSA0dzdQQsCelVdlPbFUfp+p6bqMHr6fdw3kFaerbyJKlfD&#xA;khIxVUury0tIvWu547eEEAySsqLU9BViBiqC/wATeW/+rtZ/9JEX/NWKomy1PTb7n9Su4br06ep6&#xA;MiSceVaV4k0rQ4qoSeY/L0btHJqlokiEq6NPECCNiCC2Kuj8x+XpHWOPVLR5HIVEWeIkk7AABsVR&#xA;0ssUMbSzOscSDk8jkKoA7knYYqkkHn3yNcXH1aDzFpc1zWnox3tuz1/1Q9cVT0EEAg1B3BGKpHce&#xA;e/I9tdGzufMOmQ3Y2NvJeW6SD/YFw3bFU4t7i3uYUnt5UmgkFUljYOjDxDCoOKtW93a3Ic28yTCN&#xA;zHIY2D8XXqrUJowr0xV13eWlnA1xdzx21um7zSsqIvzZiAMVSm089eSby5+q2fmHTLm55cfQhvLe&#xA;STl4cVcmuKp3iqlFd2ks8sEU0ck8FPWiVgXTluOSg1WvviqriqnDdW07SLDKkrQsY5QjBijjqrU6&#xA;H2OKqmKqNrfWV2HNrcR3AjbhJ6Tq/Fh+y3EmhxVWxVStru1ukZ7aZJ0VijNGwcBl6qSpO48MVVcV&#xA;Quo6rpmmWxudSvILK2BoZ7mRIkqe3JyoxVBaX5w8patKIdL1uwv5TWkdrdQzMaddo2Y4q8//AOci&#xA;baC60TylbXEay28/mjTo5onFVZHjnVlYHqCDirJpvyc/KyaMxv5X08K3UpCqN9DJxYffirD/AMp7&#xA;aDy/+aHnDydoU7z+VbGG3uYrdpDMlndyAepArMSfiq1RX9mh3BxVCeRvJvlTzD+ZH5kPrmk2upPb&#xA;6jbiBrmJZCgeNywXkNq0GKoX87/JP5ceWvKz6toVvBofm+3mgOiHT2MNxJM0iqUWJD8XwFj9n+1V&#xA;k/5w+Y/M1l5I0XTNPlNl5h803lnpDXCbNA9yv71lIOxqOOx2rUGu+Kpjon5F/lfpdgls2h2+oTAA&#xA;zXl8v1iaV/2nZnqByO9FAHtirCvzQ8n6X+Wgs/zD8lxnSXsruGLWtNgZha3VrK3BlaIniDUgDjtv&#xA;XqK4qnv/ADkr6L/lmPUIMLahZ8yT8JUyb7+FMVX/AOC/+ccf986B/wBJUX/VXFWYeS/LHkTR7ae6&#xA;8oWtpDbXxUTz2TCSOUwlgvxKzA8C7Yq8V/LnS/ybu5PNsnnZ9IXVR5j1BYRqNzFDL9XBQrxV3Q8O&#xA;Zehp1rir0DQvKX/OPd3qtvHoSaFdapGwmto7O6ilnDRfHzRY5Gb4eNemKpR+fjWY1jykPM63R/L4&#xA;Tztr31YOYzOFX6qLj0/j4cq9N+tN6YqmWleXv+cc/MtullpdroN0zjikMBiiujX/AFSlxX3xVd+c&#xA;2m3+i/lGdK8sw3EWnWf1a1vI7Qs9wmmRnjLwYkufhADE/s1rtXFUr8qwf84w6jp0NnpseiSc1VVS&#xA;+CJdsQO5uuMxbfeh3xV6X5U8o+W/K+nSWPl60WysbiZrpokZ3UySKqlgXZjuEHemKsF/5x//AOOb&#xA;5z/8CvUv+IQ4qkmieXbX80vzC8z6n5oZ73y95Zvm0rRtG9Rlt/VgqJZ3VCORNAfetDsAMVZxf/kp&#xA;+VV7ayW0nlqyiWQU9SCP0JB7q8fFh9+KpD+TN3q2la35r/L7ULuS/h8sTwNpV1OeUv1O7QyRxu3f&#xA;gvH76dAAFWFz+XPN0v5qeevNfk+5I13QruzDaWxpDf2stqrS27f5R9McffwNCFXsnkPz5o3nPRv0&#xA;hp/KG5hb0dR06b4Z7WddmilU0PUGhpv94CrGfye/47X5hf8AgS3X/EExVMvze833ugeWVtNIq/mX&#xA;XpV0zQ4kNH9eb4TKPARKeVegNK4qwnTPL8f5O+bdBeKUv5X8yQw6TrUzV4pqsakw3Rr9kTEsD4bk&#xA;9sVe3Yq8s/5x2/5RPW/+2/qH60xV6nirwLzNP5NT86NYP5qBv0YsFsvk8Xaytp3pmP8A0k0Wqc/U&#xA;689q1r+zirONO8i/kZ5imt7zRbHSLmezkjuIpNLeNGR4iGUsLZl7gVDD54qlf/ORtql3oPlS1dnR&#xA;LjzPp8TPGxRwHjnUlGG6sK7EYqm0n5IeWpEaOTV9ddGFGRtUuSCPcFsVZP5S8k+WPKOntYeX7FbO&#xA;CRvUmYFnkkf+aSRyzsfmdu2KvJvKX5eeTPNv5lfmNJ5i0xNQe01GBbYu8icBJGxanpsnXiOuKta9&#xA;5J0D8pvONp5107R4rjyhcenbarCYxcTaZLWkd5bPJzkVCft0P61AVZL+d9pe6j5Q0XzT5fX9It5d&#xA;1G012KOH4xPbxVYslK12ZXr/AC1xVk2gfmr+XuuafFfWWvWSLIvJoLieOGePapWSJ2DKR93gaYq8&#xA;8/ObzZo/ne3svy48qXUer6rq13C19NZsJobW2hcO8kkqVSoIGwO1DXegKqcf85JRRH8tEh4D0v0j&#xA;ZJwp8PH1KUp4UxVlH/Kovyv/AOpW03/pGj/pirIdH0XSNFsE0/SbOKxsYyxjtoFCRqWPJiFG25Nc&#xA;VeIflPeflhCvm9fNc+iRaifM2omJdUa0Wb0f3fEqJzy4cuVKbVrir0Ox8x/kfp9yt1Yap5ZtLlAQ&#xA;k8E9hFIAwoaMjA7jFU58wed/Jmjajb6Pr2pW9jcX8TSQx3Z4RSIp4sDI49Mbnox3xV5/+ZOif84+&#xA;t5dvL/U00mCYws1tPpzxR3TycSUMQtyDI1adQR47Yqm/kDzcPLf5SeWdQ8+3xs7i5UW/1m65lj6j&#xA;SPbCQ0JBNui1LfTiqv5hsPyJ1uykv9YOgXEEg5PqHq2ySEEV2njZZK/JsVSf/nHhWXS/MKadLcTe&#xA;To9TkTyxJdFixgUUk9MvQ+lypx261/ariqv/AM4//wDHN85/+BXqX/EIcVSXyh5i0z8uvzG82eXP&#xA;M8i6XY6/fvrOh6lN8FrItwayRmQ0VOGy/Ftsfaqr0vUPzH8gafaNd3fmLTkgVeVRcxOxAr9hEZmc&#xA;7dFBOKsJ/Jj65r3mXzj+YUkEltpvmG4t4NHSVeDSW1lGYhMR4OOP0g9cVR35b/8AkzfzM/5jNP8A&#xA;+oQ4qp+evI+uaRrr+f8AyEg/TqqBrei9IdTgXqKDpOB9kjr8/tKoL/nHzXINch85a1BG8MOoa7Nc&#xA;rFJs6CSGNuLe69MVSC3j8+fmF+YFz558qT6dFpGgPLpOgvqazPHIeNLi6iWPu5YqGP7NB1GKpx5u&#xA;8i/nf5r0C50LV9R8uPZXXHkY4btZEZGDq6NvxYEYqyT8mfOF7r3lh9N1j4PM3l2U6ZrUTGrmSGqp&#xA;Mf8AjKq9e7BqYqxL8jPOXk/R/LutWmr67p+nXR12/kFvd3UEEnBigDcJHVqGh3xV6ZZ/mD5CvbqK&#xA;0s/MulXN1Owjgt4b23kkd2NAqIrlmJ8BiqDvPO35bajqN75b1LUtPkvLOQRXWnX5jUFyAQFWcBZN&#xA;m/Zr4Yq8j/N3Rfyw09LGbyGba0/MR7yAaNBokihizSDn6sMJMaJwruVG+3SuKvc/MH+FvSsv8RfU&#xA;fS+txfo79Iejx+u0b0fR9bb1qcuHH4utMVTTFXYqlWk/4W/SOqfoj6j+kvVX9NfVPR9f1aHh9a9P&#xA;4+dK0574qi9V/Rf6Nuv0t6H6M9Jvrv1vh6HpU+P1fU+DhTry2xVR8v8A+H/0Pbf4e+qfobifqf6P&#xA;9P6rx5Hl6fo/u6cq1498Vedeav8AoW/9Jy/p39BfpLkfrHH0/V5/ter6G/L/AFt8VZV5C/5Vl9Uk&#xA;/wAD/ov0qD6x+jfR9T29bh+8r/r4qm3mT/C36OH+JvqP6N9VKfpL0fQ9Wv7v+/8Ag51+z3xVNcVd&#xA;irzy+/6F8+vXH1//AAl9e9V/rfr/AKN9X1eR9T1Ofxc+VeVd64qof9Y3f9+d/wByvFWV+cv8C/ow&#xA;f4x/R36PqeH6T9Hhy2+x6v7XT7O+KsH8sf8AQtv6Xi/Qn6C/SfNfq3Lhz9Svw+l637VenHfFXpWt&#xA;foX9GT/pv6t+i+P+lfXfT+r8f+LPV+CnzxV5SP8AoVr9JCn+HvrHLv6foVp7/uKfhir1yx+o/U4f&#xA;qHpfUuC/V/Q4+l6dPh4cPh406UxVBeX/APC3pXv+HfqPpfW5f0j+j/R4/XaL63rejt61OPPl8XSu&#xA;Kobzj/gj9F/87h+jv0ZX4f0p6Ppcqfsetty8OO+KvPNI/wChXvr6fUv0B9Zr+79fhx5V2p6/wVr0&#xA;xV67D6Pop6PH0eI9PhTjxptxptSnTFUBpv8Ahv8ASep/oz6n+lOcf6Z+rel9Y9Th+6+s8Pj5cPs8&#xA;+3TFUyxVJ9O/wf6eq/o39H+n60v6c+r+hx9fj+9+t8P2+P2/U3p1xVW8uf4b/Q1v/hr6n+hfj+q/&#xA;o30vqv2zz9P0f3f261p3riqZYqk+nf4P/T+pfo39H/4gon6Y+reh9cpT939Z4fven2eeKsSuv+hd&#xA;/rMv1r/CP1nm3r+r+jPU9Svxc+W/KvWuKq+kf8qF/Slr+h/8K/pX1V+pfU/0d9Y9Wvwel6fx869O&#xA;O+Kq3n//AJU56o/xt+h/rfEcPrvo/WuNP2f93cfltiqh+X3/ACpT64/+CP0R+keJ5fVfT+tcP2qc&#xA;v3vHxptir//Z</xmpGImg:image>
               </rdf:li>
            </rdf:Alt>
         </xmp:Thumbnails>
      </rdf:Description>
      <rdf:Description rdf:about=""
            xmlns:xmpMM="http://ns.adobe.com/xap/1.0/mm/"
            xmlns:stEvt="http://ns.adobe.com/xap/1.0/sType/ResourceEvent#">
         <xmpMM:InstanceID>xmp.iid:f94b686b-8003-c643-8377-603b461cc5bb</xmpMM:InstanceID>
         <xmpMM:DocumentID>xmp.did:29e821d8-a4ee-524e-a101-8b7e35a3bc7a</xmpMM:DocumentID>
         <xmpMM:OriginalDocumentID>xmp.did:29e821d8-a4ee-524e-a101-8b7e35a3bc7a</xmpMM:OriginalDocumentID>
         <xmpMM:History>
            <rdf:Seq>
               <rdf:li rdf:parseType="Resource">
                  <stEvt:action>saved</stEvt:action>
                  <stEvt:instanceID>xmp.iid:29e821d8-a4ee-524e-a101-8b7e35a3bc7a</stEvt:instanceID>
                  <stEvt:when>2016-06-15T09:28:58-03:00</stEvt:when>
                  <stEvt:softwareAgent>Adobe Bridge CC (Windows)</stEvt:softwareAgent>
                  <stEvt:changed>/metadata</stEvt:changed>
               </rdf:li>
               <rdf:li rdf:parseType="Resource">
                  <stEvt:action>saved</stEvt:action>
                  <stEvt:instanceID>xmp.iid:f94b686b-8003-c643-8377-603b461cc5bb</stEvt:instanceID>
                  <stEvt:when>2016-09-26T19:54:22-03:00</stEvt:when>
                  <stEvt:softwareAgent>Adobe Bridge CC 2015 (Windows)</stEvt:softwareAgent>
                  <stEvt:changed>/metadata</stEvt:changed>
               </rdf:li>
            </rdf:Seq>
         </xmpMM:History>
      </rdf:Description>
      <rdf:Description rdf:about=""
            xmlns:xmpTPg="http://ns.adobe.com/xap/1.0/t/pg/"
            xmlns:stDim="http://ns.adobe.com/xap/1.0/sType/Dimensions#"
            xmlns:xmpG="http://ns.adobe.com/xap/1.0/g/">
         <xmpTPg:NPages>1</xmpTPg:NPages>
         <xmpTPg:HasVisibleTransparency>False</xmpTPg:HasVisibleTransparency>
         <xmpTPg:HasVisibleOverprint>False</xmpTPg:HasVisibleOverprint>
         <xmpTPg:MaxPageSize rdf:parseType="Resource">
            <stDim:w>113.000000</stDim:w>
            <stDim:h>60.000000</stDim:h>
            <stDim:unit>Points</stDim:unit>
         </xmpTPg:MaxPageSize>
         <xmpTPg:PlateNames>
            <rdf:Seq>
               <rdf:li>Cyan</rdf:li>
               <rdf:li>Magenta</rdf:li>
               <rdf:li>Yellow</rdf:li>
               <rdf:li>Black</rdf:li>
            </rdf:Seq>
         </xmpTPg:PlateNames>
         <xmpTPg:SwatchGroups>
            <rdf:Seq>
               <rdf:li rdf:parseType="Resource">
                  <xmpG:groupName>Grupo de amostras padrão</xmpG:groupName>
                  <xmpG:groupType>0</xmpG:groupType>
                  <xmpG:Colorants>
                     <rdf:Seq>
                        <rdf:li rdf:parseType="Resource">
                           <xmpG:swatchName>C=0 M=100 Y=65 K=15</xmpG:swatchName>
                           <xmpG:type>PROCESS</xmpG:type>
                           <xmpG:tint>100.000000</xmpG:tint>
                           <xmpG:mode>RGB</xmpG:mode>
                           <xmpG:red>205</xmpG:red>
                           <xmpG:green>16</xmpG:green>
                           <xmpG:blue>65</xmpG:blue>
                        </rdf:li>
                     </rdf:Seq>
                  </xmpG:Colorants>
               </rdf:li>
            </rdf:Seq>
         </xmpTPg:SwatchGroups>
      </rdf:Description>
      <rdf:Description rdf:about=""
            xmlns:dc="http://purl.org/dc/elements/1.1/">
         <dc:format>image/svg+xml</dc:format>
      </rdf:Description>
   </rdf:RDF>
</x:xmpmeta>
                                                                                                    
                                                                                                    
                                                                                                    
                                                                                                    
                                                                                                    
                                                                                                    
                                                                                                    
                                                                                                    
                                                                                                    
                                                                                                    
                                                                                                    
                                                                                                    
                                                                                                    
                                                                                                    
                                                                                                    
                                                                                                    
                                                                                                    
                                                                                                    
                                                                                                    
                                                                                                    
                           
<?xpacket end="w"?>
	</metadata>
<path display="none" fill="#212121" d="M50.36,45.355l-0.061-0.067l-0.056-0.065c-0.042-0.049-0.078-0.094-0.105-0.127
	c-0.08-0.092-0.148-0.171-0.204-0.234c-0.011-0.018-0.023-0.028-0.036-0.041c-0.014-0.016-0.025-0.028-0.036-0.045
	c-0.037-0.041-0.067-0.074-0.09-0.102c0.17-0.038,0.318-0.091,0.441-0.158c0.269-0.149,0.402-0.355,0.402-0.619
	c0-0.291-0.141-0.502-0.423-0.629c-0.202-0.092-0.458-0.137-0.774-0.137h-0.511l-0.422,0.01h-0.119h-0.08l-0.029,0.026
	c0.022,0.325,0.036,0.551,0.039,0.672c0.007,0.244,0.012,0.554,0.012,0.922c0,0.306-0.006,0.644-0.017,1.011l-0.005,0.148
	l0.032,0.025c0.2-0.01,0.382-0.014,0.545-0.014l0.029-0.025c-0.001-0.016-0.005-0.043-0.007-0.08
	c-0.001-0.021-0.003-0.051-0.007-0.081l-0.001-0.063l-0.007-0.277c-0.007-0.229-0.013-0.445-0.015-0.656h0.143
	c0.051-0.002,0.123-0.003,0.219-0.004c0.013,0.014,0.029,0.029,0.048,0.049c0.009,0.012,0.017,0.021,0.027,0.031
	c0.013,0.013,0.024,0.025,0.036,0.037c0.022,0.027,0.04,0.047,0.05,0.061c0.006,0.01,0.014,0.016,0.02,0.021
	c0.014,0.017,0.032,0.039,0.053,0.065c0.02,0.021,0.072,0.087,0.159,0.194c0.073,0.093,0.135,0.169,0.183,0.225
	c0.171,0.201,0.305,0.372,0.403,0.512l0.035,0.017c0.211-0.013,0.414-0.017,0.61-0.017l0.024-0.041L50.8,45.83
	C50.619,45.646,50.474,45.486,50.36,45.355z M49.064,44.427h-0.046c-0.031,0-0.049,0-0.056-0.004
	c-0.012-0.001-0.021-0.001-0.021-0.001h-0.093c-0.003-0.105-0.005-0.23-0.005-0.367v-0.123v-0.115c0-0.131,0.001-0.25,0.005-0.354
	c0.171-0.007,0.291-0.009,0.358-0.009c0.177,0,0.314,0.009,0.409,0.025c0.13,0.023,0.23,0.068,0.299,0.133
	c0.002,0.002,0.005,0.006,0.006,0.007c0.006,0.006,0.01,0.009,0.012,0.012c0.011,0.009,0.016,0.017,0.017,0.017
	c0.043,0.035,0.076,0.095,0.1,0.18c0.009,0.037,0.014,0.074,0.014,0.107c0,0.152-0.078,0.272-0.232,0.36
	C49.676,44.382,49.42,44.427,49.064,44.427z M47.309,43.271l-0.014-0.006c-0.016-0.009-0.028-0.014-0.034-0.017
	c-0.167-0.081-0.455-0.127-0.865-0.127c-0.054,0-0.093,0-0.117,0.001c-0.013,0.002-0.02,0.003-0.024,0.003l-0.336,0.004
	c-0.082,0.001-0.148,0.006-0.201,0.007c-0.081,0.002-0.151,0.004-0.211,0.004h-0.123l-0.024,0.027
	c0.028,0.361,0.042,0.821,0.046,1.376v0.228v0.256c0,0.246-0.006,0.543-0.016,0.894l0.031,0.027c0.2-0.013,0.382-0.017,0.545-0.015
	l0.029-0.027c-0.009-0.106-0.015-0.237-0.019-0.393c-0.011-0.343-0.018-0.558-0.02-0.646c0.055,0.002,0.111,0.005,0.167,0.005h0.06
	c0.231,0,0.438-0.017,0.623-0.046c0.276-0.045,0.494-0.131,0.654-0.262c0.203-0.166,0.305-0.363,0.305-0.592
	c0-0.184-0.056-0.346-0.167-0.48C47.521,43.396,47.424,43.324,47.309,43.271z M47.13,44.244c-0.093,0.138-0.248,0.227-0.465,0.265
	c-0.14,0.026-0.34,0.038-0.599,0.038h-0.109c-0.003-0.117-0.003-0.251-0.003-0.398v-0.135v-0.139c0-0.152,0-0.291,0.003-0.414
	c0.083-0.008,0.191-0.012,0.326-0.014h0.111c0.177,0,0.317,0.015,0.419,0.041c0.1,0.025,0.187,0.074,0.261,0.141
	c0.089,0.086,0.133,0.201,0.133,0.348C47.208,44.083,47.181,44.171,47.13,44.244z M45.381,30.822
	c-0.209-0.297-0.725-0.969-1.99-1.379c-1.265-0.41-4.494-0.009-5.052-0.026c-0.558-0.018-0.986-0.183-1.238-0.62
	c-0.254-0.437,0.01-1.395,0.048-1.613c0.039-0.217-0.057-0.356-0.166-0.417c-0.108-0.061-0.233-0.229-0.119-0.5
	c0.114-0.27,0.498-0.489,0.498-0.489s-0.157-0.057-0.375-0.422c-0.217-0.366,0.226-0.582,0.365-0.896
	c0.14-0.313-0.532-0.593-0.707-1.038c-0.175-0.445,0.009-0.646,0.279-0.802c0.271-0.158,1.747-1.203,2.114-1.517
	c0.367-0.315,0.209-1.276,0.751-2.533c0.542-1.259,1.769-1.753,1.944-1.884c0.175-0.13,0.158-0.593,0.794-1.353
	c0.636-0.759,1.944-1.184,2.73-1.27c0.786-0.088,2.83-0.385,6.219,2.079c3.39,2.463,5.661,4.14,8.229,4.35
	c2.566,0.209,4.804-1.222,7.563-2.08c2.764-0.856,4.295,0.01,5.106,0.69c0.813,0.681,0.771,1.739,0.625,1.77
	c-0.144,0.031-0.271-0.261-0.774-0.7c-0.506-0.439-1.393-0.676-2.701-0.536c-1.312,0.139-3.441,1.064-5.225,1.799
	c-1.781,0.734-3.826,1.014-5.679,0.769c-1.852-0.245-3.721-1.52-5.608-2.778c-1.887-1.257-4.105-3.145-6.063-3.616
	c-1.957-0.472-3.528,0.419-3.861,1.031c-0.332,0.611-0.838,0.838-0.838,0.838c-1.819,1.11-1.558,2.619-1.741,3.333
	c-0.184,0.716-2.069,1.904-2.322,2.057c-0.253,0.151-0.126,0.305-0.018,0.417c0.11,0.113,0.632,0.514,0.645,0.81
	c0.013,0.295-0.208,0.583-0.327,0.723c-0.118,0.139,0.083,0.269,0.361,0.453c0.278,0.183,0,0.327-0.213,0.573
	c-0.213,0.25,0.139,0.436,0.209,0.602c0.069,0.167-0.097,0.401-0.24,0.666c-0.144,0.266-0.122,0.606,0.108,0.845
	c0.231,0.24,1.737,0.054,1.737,0.054s2.569-0.174,3.582,0.313c1.013,0.49,1.529,1.167,1.773,1.754
	c0.244,0.585,0.387,1.536,0.251,1.545c-0.135,0.01-0.166-0.092-0.166-0.092S45.59,31.119,45.381,30.822z M56.956,43.126l0.024,0.028
	c-0.014,0.128-0.023,0.232-0.029,0.313l-0.03,0.025c-0.362-0.009-0.725-0.015-1.088-0.017l-0.309-0.002
	c-0.006,0.241-0.008,0.433-0.008,0.57v0.318c0.45-0.004,0.861-0.01,1.231-0.018l0.024,0.021c-0.006,0.082-0.015,0.152-0.021,0.218
	l-0.007,0.062l-0.005,0.039l-0.029,0.026c-0.481-0.007-0.876-0.015-1.184-0.015c0,0.029,0,0.066-0.002,0.109
	s-0.002,0.069-0.002,0.082v0.029c0,0.092,0.002,0.223,0.008,0.387v0.051l0.001,0.053l0.002,0.043v0.045
	c0.004,0.17,0.011,0.309,0.021,0.409L55.53,45.93c-0.173,0-0.364,0.004-0.574,0.016l-0.025-0.027l0.005-0.111
	c0.011-0.228,0.018-0.479,0.02-0.766c0.004-0.227,0.005-0.43,0.005-0.607v-0.258c0-0.416-0.005-0.701-0.02-0.855L54.94,43.27
	c-0.005-0.047-0.007-0.082-0.007-0.104l0.024-0.026h0.281c0.123,0,0.291,0,0.504-0.003l0.243-0.004h0.266l0.355-0.003L56.956,43.126
	z M53.641,43.296l-0.013-0.009c-0.077-0.046-0.182-0.089-0.317-0.128c-0.181-0.058-0.382-0.08-0.605-0.08
	c-0.467,0-0.843,0.114-1.125,0.347c-0.327,0.27-0.491,0.649-0.491,1.129c0,0.594,0.241,1.012,0.723,1.256
	c0.248,0.123,0.544,0.185,0.887,0.185c0.448,0,0.811-0.103,1.088-0.302c0.354-0.256,0.53-0.639,0.53-1.144
	C54.317,43.979,54.091,43.563,53.641,43.296z M53.6,45.146c-0.019,0.045-0.088,0.137-0.207,0.275
	c-0.003,0.004-0.005,0.005-0.005,0.008c-0.003,0.004-0.004,0.006-0.004,0.006c-0.006,0.01-0.05,0.041-0.129,0.094
	c-0.022,0.016-0.051,0.029-0.084,0.046c-0.129,0.059-0.282,0.086-0.464,0.086c-0.244,0-0.452-0.062-0.623-0.187
	c-0.129-0.094-0.225-0.218-0.288-0.371c-0.073-0.177-0.108-0.369-0.108-0.584c0-0.101,0.012-0.211,0.037-0.334
	c0.04-0.186,0.105-0.332,0.198-0.447c0.177-0.223,0.439-0.33,0.786-0.33c0.262,0,0.477,0.063,0.643,0.185
	c0.121,0.093,0.211,0.21,0.269,0.354c0.069,0.173,0.104,0.371,0.104,0.589C53.726,44.758,53.685,44.961,53.6,45.146z M31.352,33.348
	L31.352,33.348L31.352,33.348L31.352,33.348z M43.081,33.32h1.71l-2.817,8.431h-1.712l-2.236-6.028l-2.306,6.028h-1.66l-2.707-8.403
	h1.738l1.913,5.94c0,0,1.66-4.72,1.922-5.33c0.262-0.61,0.875-0.53,1.513-0.53c0.637,0,0.698,0.393,0.698,0.393l1.947,5.469
	L43.081,33.32z M74.178,33.994c-0.41,0.674-3.717,7.775-3.717,7.775h1.928l0.805-1.647h5.619l0.773,1.642h1.975l-3.719-7.775
	c0,0-0.377-0.68-1.055-0.68c-0.682,0-1.607,0-1.607,0S74.588,33.32,74.178,33.994z M76.438,34.958c0.711,1.297,1.14,2.61,1.84,3.911
	h-4.562v-0.001c0.589-1.287,1.144-2.565,1.888-3.894C75.757,34.702,76.273,34.654,76.438,34.958z M47.119,35.209
	c0,0.4,0,1.482,0,1.482h4.842v1.474h-4.842v1.649c0,0-0.01,0.443,0.375,0.443c0.384,0,5.742,0,5.742,0s0.279-0.005,0.45,0.225
	c0.17,0.226,0.261,0.518,0.279,0.723c0.017,0.204,0.017,0.521,0.017,0.521h-6.767c0,0-1.788-0.134-1.788-1.625
	c0-1.492,0-5.313,0-5.313s0.079-1.432,1.658-1.432s6.859,0,6.859,0s-0.044,1.562-0.842,1.457h-5.486
	C47.616,34.814,47.119,34.807,47.119,35.209z M59.434,45.582l0.022,0.027c-0.009,0.086-0.015,0.184-0.019,0.297l-0.039,0.027
	c-0.297,0-0.642,0-1.03,0.004l-0.373,0.004L57.6,45.943l-0.266,0.005l-0.023-0.027c0.015-0.331,0.023-0.749,0.023-1.259v-0.188
	c0.001-0.297-0.012-0.73-0.034-1.309l0.034-0.025l0.27-0.004l0.396-0.001l0.378-0.003l0.376-0.002l0.397-0.001l0.27-0.004
	l0.027,0.028c-0.016,0.115-0.027,0.222-0.031,0.308l-0.034,0.029l-0.188-0.005c-0.453-0.01-0.885-0.016-1.295-0.018
	c-0.008,0.266-0.01,0.475-0.01,0.622v0.222h0.445c0.284,0,0.602-0.006,0.952-0.014l0.028,0.026
	c-0.017,0.118-0.023,0.223-0.028,0.311l-0.03,0.027c-0.438-0.011-0.822-0.013-1.156-0.013h-0.211
	c-0.004,0.048-0.006,0.132-0.011,0.248l-0.001,0.123c-0.002,0.088-0.002,0.138-0.002,0.149c0,0.021,0,0.088,0.002,0.2
	c0.001,0.1,0.003,0.173,0.006,0.227h0.207C58.464,45.604,58.91,45.595,59.434,45.582z M73.382,22.316
	c1.265,0.768,1.255,1.771,1.255,2.129c0,0.356-0.27,0.113-0.27,0.113s-1.1-1.205-2.723-1.405c-1.621-0.202-3.709,0.677-4.408,1.044
	c-0.7,0.366-4.108,1.889-7.024,2.025c-2.914,0.138-5.613-1.083-7.879-3.529c-2.188-2.359-3.333-3.152-4.362-3.641
	c-1.03-0.489-1.912-0.341-2.27-0.28c-0.356,0.06-0.592,0.06-0.565-0.135c0.026-0.196,0.928-0.601,0.928-0.601
	c2.698-0.856,5.358,1.967,6.528,2.92c0.943,0.769,1.914,1.382,2.379,1.704c0.961,0.663,2.603,1.694,5.399,1.676
	c2.795-0.016,6.552-2.008,8.159-2.445C70.139,21.454,72.118,21.548,73.382,22.316z M74.12,25.735
	c2.219,0.715,2.219,2.008,2.21,2.618c-0.01,0.611-0.234,0.462-0.234,0.462l-0.246-0.391c0,0-1.658-2.62-6.289-1.048
	c-4.629,1.572-5.957,2.534-9.783,2.674c-3.824,0.141-6.376-2.445-7.284-3.529c-0.907-1.084-2.533-2.673-2.533-2.673
	c-0.942-0.979-1.501-0.718-1.537-0.944c-0.035-0.228,0.664-0.35,1.538-0.052s1.66,0.996,2.9,2.114
	c1.24,1.119,3.145,2.515,4.665,2.936c1.52,0.419,3.563,0.715,7.617-0.892C69.193,25.401,71.9,25.018,74.12,25.735z M69.163,43.296
	l-0.013-0.009c-0.078-0.046-0.184-0.089-0.317-0.128c-0.183-0.058-0.382-0.08-0.606-0.08c-0.465,0-0.844,0.114-1.123,0.347
	c-0.328,0.27-0.49,0.649-0.49,1.129c0,0.594,0.24,1.012,0.723,1.256c0.247,0.123,0.543,0.185,0.889,0.185
	c0.445,0,0.809-0.103,1.086-0.302c0.354-0.256,0.53-0.639,0.53-1.144C69.84,43.979,69.613,43.563,69.163,43.296z M69.122,45.146
	c-0.021,0.045-0.087,0.137-0.206,0.275c-0.002,0.004-0.005,0.005-0.005,0.008c-0.004,0.004-0.005,0.006-0.005,0.006
	c-0.008,0.01-0.049,0.041-0.129,0.094c-0.022,0.016-0.051,0.029-0.084,0.046c-0.127,0.059-0.284,0.086-0.465,0.086
	c-0.244,0-0.451-0.062-0.621-0.187c-0.129-0.094-0.229-0.218-0.291-0.371c-0.07-0.177-0.106-0.369-0.106-0.584
	c0-0.101,0.015-0.211,0.038-0.334c0.039-0.186,0.105-0.332,0.197-0.447c0.176-0.223,0.438-0.33,0.787-0.33
	c0.262,0,0.476,0.063,0.644,0.185c0.121,0.093,0.212,0.21,0.271,0.354c0.069,0.173,0.104,0.371,0.104,0.589
	C69.248,44.758,69.206,44.961,69.122,45.146z M76.582,45.646l-0.018-0.037c-0.149-0.37-0.303-0.756-0.459-1.156
	c-0.08-0.191-0.154-0.378-0.228-0.567l-0.065-0.17l-0.062-0.161l-0.06-0.16l-0.065-0.17l-0.022-0.069l-0.035-0.027
	c-0.262,0.006-0.498,0.013-0.709,0.015l-0.039,0.026l-0.035,0.101c-0.094,0.236-0.225,0.551-0.393,0.941l-0.031,0.077l-0.034,0.079
	l-0.106,0.258l-0.104,0.232l-0.102,0.235l-0.108,0.257l-0.063,0.146l-0.059,0.133c-0.039,0.089-0.078,0.186-0.122,0.283l0.021,0.025
	c0.188-0.004,0.36-0.01,0.512-0.011l0.033-0.028c0.104-0.295,0.201-0.567,0.295-0.814l0.072-0.002
	c0.25-0.005,0.434-0.007,0.545-0.007c0.108,0,0.291,0.002,0.543,0.007l0.075,0.002l0.021,0.051l0.025,0.074l0.028,0.075
	c0.019,0.046,0.034,0.097,0.054,0.146c0.027,0.077,0.084,0.24,0.165,0.488l0.035,0.025c0.17-0.006,0.363-0.01,0.577-0.014
	l0.018-0.031l-0.017-0.039C76.643,45.79,76.611,45.721,76.582,45.646z M75.395,44.764H75.27l-0.125,0.002l-0.125-0.002h-0.125
	c-0.1-0.002-0.183-0.002-0.248-0.002l0.521-1.334l0.477,1.334C75.578,44.762,75.494,44.762,75.395,44.764z M65.17,40.305
	c0.335,0,5.085,0,5.085,0l-0.735,1.461h-4.955c0,0-1.441-0.135-1.441-1.551c0-1.415,0.009-6.902,0.009-6.902h1.642v6.557
	C64.771,39.868,64.835,40.305,65.17,40.305z M81.648,45.146c0,0.24-0.108,0.44-0.328,0.598c-0.229,0.167-0.551,0.251-0.957,0.251
	c-0.307,0-0.61-0.052-0.916-0.153c-0.021-0.007-0.04-0.014-0.059-0.021l-0.016-0.027l0.005-0.045l0.009-0.068
	c0.008-0.074,0.016-0.156,0.021-0.25l0.057-0.016c0.259,0.154,0.548,0.23,0.862,0.23c0.135,0,0.246-0.016,0.337-0.039
	c0.132-0.032,0.231-0.086,0.299-0.16c0.065-0.074,0.101-0.154,0.101-0.245c0-0.104-0.043-0.191-0.127-0.265l0,0l-0.002-0.004V44.93
	v-0.003c-0.067-0.054-0.152-0.1-0.259-0.138c-0.05-0.021-0.116-0.045-0.196-0.066c-0.008-0.003-0.018-0.006-0.033-0.01l-0.246-0.086
	c-0.008-0.003-0.02-0.006-0.037-0.016l-0.039-0.016c-0.257-0.097-0.438-0.197-0.545-0.298c-0.137-0.129-0.203-0.282-0.203-0.458
	c0-0.253,0.124-0.449,0.373-0.591c0.212-0.116,0.486-0.174,0.826-0.174c0.283,0,0.541,0.03,0.777,0.099l0.053,0.014
	c0.015,0.004,0.035,0.011,0.061,0.02l0.029,0.025c-0.018,0.113-0.031,0.229-0.038,0.351l-0.044,0.019
	c-0.29-0.125-0.561-0.188-0.813-0.188c-0.178,0-0.324,0.025-0.441,0.076c-0.157,0.07-0.236,0.172-0.236,0.311
	c0,0.127,0.082,0.229,0.249,0.309c0.077,0.039,0.206,0.09,0.386,0.148l0.256,0.088c0.283,0.098,0.479,0.191,0.592,0.283
	C81.566,44.77,81.648,44.941,81.648,45.146z M73.214,43.127l0.029,0.028v0.077c0,0.029-0.002,0.138-0.007,0.33
	c-0.002,0.084-0.006,0.308-0.008,0.658v0.331l-0.004,0.214v0.14c0,0.292,0.006,0.569,0.014,0.836l0.005,0.165l-0.022,0.027
	c-0.183,0-0.385,0.004-0.611,0.016l-0.041-0.027c-0.297-0.43-0.479-0.688-0.545-0.777c-0.051-0.069-0.099-0.138-0.145-0.199
	c-0.063-0.088-0.126-0.176-0.193-0.27L70.9,43.559l0.047,1.357l0.01,0.16l0.006,0.146l0.003,0.139l0.009,0.152
	c0.004,0.155,0.012,0.286,0.021,0.397l-0.024,0.026c-0.146,0-0.308,0.004-0.484,0.014l-0.027-0.028
	c0.012-0.312,0.018-0.541,0.021-0.692c0.002-0.092,0.002-0.194,0.002-0.309v-0.227c0-0.469-0.002-0.795-0.01-0.977
	c-0.01-0.244-0.015-0.386-0.015-0.422c0-0.037-0.002-0.074-0.004-0.105l-0.003-0.021l0.023-0.027
	c0.178-0.002,0.393-0.009,0.639-0.014l0.059,0.028c0.026,0.04,0.059,0.087,0.1,0.142c0.065,0.096,0.14,0.196,0.213,0.307l0.07,0.101
	l0.043,0.063l0.049,0.067l0.045,0.065l0.045,0.063l0.084,0.119c0.127,0.187,0.248,0.358,0.363,0.521l0.616,0.86l-0.042-1.312
	c-0.004-0.109-0.008-0.231-0.01-0.361c-0.005-0.076-0.008-0.184-0.016-0.316l-0.002-0.041c-0.004-0.091-0.013-0.181-0.018-0.266
	l0.029-0.027C72.884,43.141,73.04,43.139,73.214,43.127z M78.979,45.57l0.03,0.031c-0.013,0.088-0.021,0.19-0.024,0.305
	l-0.022,0.027c-0.276,0-0.593,0-0.95,0.004h-0.344l-0.359,0.006l-0.244,0.002l-0.031-0.024c0.012-0.31,0.019-0.56,0.019-0.747
	c0.005-0.146,0.007-0.314,0.007-0.5v-0.265c0-0.479-0.014-0.894-0.035-1.24l0.028-0.028c0.104,0,0.196-0.002,0.287-0.007
	l0.104-0.002l0.105-0.001l0.075-0.002l0.028,0.021c-0.01,0.13-0.014,0.275-0.019,0.449c-0.01,0.151-0.016,0.336-0.017,0.549
	l-0.002,0.076v0.08c-0.004,0.156-0.006,0.311-0.006,0.471v0.162v0.17c0,0.177,0.004,0.336,0.011,0.483h0.524
	C78.209,45.591,78.486,45.583,78.979,45.57z M62.126,40.684c0.175,0.399,0.165,1.082,0.165,1.082h-5.8c0,0-1.44-0.137-1.44-1.552
	s0.007-6.903,0.007-6.903H56.7v6.557c0,0,0.062,0.438,0.397,0.438c0.334,0,4.58,0,4.58,0S61.951,40.282,62.126,40.684z
	 M64.574,44.633c0.162,0.137,0.246,0.309,0.246,0.514c0,0.24-0.107,0.44-0.326,0.598c-0.23,0.167-0.553,0.251-0.957,0.251
	c-0.307,0-0.613-0.052-0.917-0.153c-0.021-0.007-0.042-0.014-0.06-0.021l-0.015-0.027l0.005-0.045l0.008-0.068
	c0.006-0.074,0.016-0.156,0.021-0.25l0.055-0.016c0.263,0.154,0.55,0.23,0.864,0.23c0.134,0,0.248-0.016,0.337-0.039
	c0.131-0.032,0.231-0.086,0.299-0.16c0.068-0.074,0.101-0.154,0.101-0.245c0-0.104-0.043-0.191-0.125-0.265l0,0l-0.002-0.002v-0.002
	l-0.002-0.002c-0.067-0.055-0.152-0.1-0.258-0.138c-0.052-0.021-0.117-0.046-0.197-0.067c-0.006-0.002-0.019-0.004-0.032-0.01
	l-0.246-0.086c-0.007-0.001-0.019-0.006-0.038-0.016l-0.039-0.016c-0.258-0.097-0.439-0.197-0.546-0.297
	c-0.136-0.13-0.203-0.281-0.203-0.457c0-0.254,0.124-0.451,0.374-0.591c0.212-0.116,0.487-0.175,0.827-0.175
	c0.282,0,0.541,0.031,0.776,0.098l0.054,0.016c0.013,0.002,0.034,0.01,0.06,0.018l0.027,0.025c-0.016,0.115-0.031,0.229-0.039,0.351
	l-0.044,0.019c-0.289-0.125-0.56-0.188-0.813-0.188c-0.177,0-0.322,0.025-0.439,0.077c-0.16,0.069-0.238,0.172-0.238,0.312
	c0,0.127,0.084,0.228,0.253,0.31c0.076,0.038,0.205,0.088,0.384,0.146l0.256,0.087C64.264,44.445,64.46,44.542,64.574,44.633z
	 M61.882,44.633c0.165,0.137,0.248,0.309,0.248,0.514c0,0.24-0.108,0.44-0.327,0.598c-0.229,0.167-0.55,0.251-0.957,0.251
	c-0.307,0-0.611-0.052-0.918-0.153c-0.02-0.007-0.041-0.014-0.059-0.021l-0.014-0.027l0.006-0.045l0.008-0.068
	c0.006-0.074,0.016-0.156,0.021-0.25l0.055-0.016c0.26,0.154,0.549,0.23,0.863,0.23c0.135,0,0.246-0.016,0.336-0.039
	c0.131-0.032,0.23-0.086,0.299-0.16c0.066-0.074,0.101-0.154,0.101-0.245c0-0.104-0.042-0.191-0.125-0.265l0,0l-0.002-0.004V44.93
	l-0.002-0.003c-0.065-0.054-0.151-0.1-0.258-0.138c-0.054-0.021-0.118-0.045-0.196-0.066c-0.007-0.003-0.02-0.006-0.033-0.01
	l-0.246-0.086c-0.009-0.003-0.02-0.006-0.039-0.016l-0.039-0.016c-0.256-0.097-0.438-0.197-0.547-0.298
	c-0.136-0.129-0.201-0.282-0.201-0.458c0-0.253,0.123-0.449,0.375-0.591c0.211-0.116,0.486-0.174,0.826-0.174
	c0.281,0,0.541,0.03,0.776,0.099l0.051,0.014c0.015,0.004,0.036,0.011,0.062,0.02l0.027,0.025c-0.017,0.113-0.031,0.229-0.039,0.351
	l-0.043,0.019c-0.289-0.125-0.56-0.188-0.813-0.188c-0.178,0-0.32,0.025-0.439,0.076c-0.16,0.07-0.236,0.172-0.236,0.311
	c0,0.127,0.082,0.229,0.25,0.309c0.076,0.039,0.203,0.09,0.384,0.148l0.257,0.088C61.572,44.445,61.77,44.542,61.882,44.633z
	 M65.962,44.415c-0.002,0.569,0.013,1.067,0.043,1.491l-0.034,0.025c-0.166-0.002-0.349,0.002-0.554,0.012l-0.028-0.023
	c0.018-0.27,0.026-0.581,0.026-0.929c0-0.038-0.001-0.19-0.001-0.456l-0.003-0.196v-0.218l-0.002-0.086v-0.083
	c-0.005-0.297-0.013-0.503-0.022-0.613c-0.002-0.032-0.004-0.071-0.006-0.106c-0.002-0.008-0.003-0.029-0.005-0.064l0.028-0.025
	c0.137,0,0.32-0.008,0.554-0.016l0.028,0.031c-0.004,0.134-0.008,0.273-0.016,0.422c-0.007,0.188-0.01,0.395-0.01,0.619
	L65.962,44.415L65.962,44.415z"/>
<path fill="#212121" d="M33.973,42.188h-1.589v3.463h0.388v-1.288h1.201c1.017,0,1.446-0.437,1.446-1.081
	C35.419,42.614,34.995,42.188,33.973,42.188z M33.973,44.035h-1.201v-1.504h1.201c0.693,0,1.05,0.23,1.05,0.751
	C35.023,43.811,34.658,44.035,33.973,44.035z M39.354,43.162c0-0.589-0.399-0.974-1.295-0.974h-1.641v3.463h0.388v-1.457h1.227
	l1.133,1.457h0.486l-1.261-1.537C39.032,44.055,39.354,43.676,39.354,43.162z M38,43.879h-1.193v-1.348h1.245
	c0.642,0,0.904,0.242,0.904,0.65C38.956,43.62,38.671,43.879,38,43.879z M42.128,42.129c-1.382,0-1.908,0.645-1.908,1.792
	c0,1.146,0.526,1.806,1.908,1.806c1.382,0,1.898-0.665,1.898-1.806C44.026,42.773,43.51,42.129,42.128,42.129z M42.128,45.358
	c-1.077,0-1.502-0.464-1.502-1.438c0-0.983,0.425-1.433,1.502-1.433c1.083,0,1.494,0.449,1.494,1.433
	C43.622,44.895,43.205,45.358,42.128,45.358z M45.526,42.569v1.156h2.074v0.349h-2.074v1.577h-0.388v-3.463h2.837l0.008,0.381
	H45.526z M49.329,45.293h2.583l-0.014,0.358h-2.953v-3.463h2.843l0.012,0.365h-2.471v1.137h2.136v0.314h-2.136V45.293z
	 M55.486,44.641c0,0.595-0.505,1.086-1.491,1.086c-0.537,0-0.978-0.13-1.347-0.328l0.06-0.362c0.387,0.216,0.792,0.337,1.295,0.337
	c0.732,0,1.111-0.321,1.111-0.704c0-0.905-2.423-0.301-2.423-1.551c0-0.48,0.399-0.993,1.424-0.993c0.46,0,0.895,0.082,1.231,0.229
	l-0.062,0.349c-0.39-0.144-0.743-0.223-1.167-0.223c-0.777,0-1.058,0.347-1.058,0.614C53.062,43.963,55.486,43.339,55.486,44.641z
	 M58.982,44.641c0,0.595-0.505,1.086-1.49,1.086c-0.539,0-0.978-0.13-1.348-0.328l0.06-0.362c0.388,0.216,0.792,0.337,1.297,0.337
	c0.729,0,1.11-0.321,1.11-0.704c0-0.905-2.424-0.301-2.424-1.551c0-0.48,0.4-0.993,1.425-0.993c0.462,0,0.896,0.082,1.231,0.229
	l-0.06,0.349c-0.392-0.144-0.746-0.223-1.167-0.223c-0.78,0-1.059,0.347-1.059,0.614C56.558,43.963,58.982,43.339,58.982,44.641z
	 M60.063,42.188h0.391v3.463h-0.391V42.188z M63.557,42.129c-1.383,0-1.909,0.645-1.909,1.792c0,1.146,0.526,1.806,1.909,1.806
	c1.381,0,1.897-0.665,1.897-1.806C65.454,42.773,64.938,42.129,63.557,42.129z M63.557,45.358c-1.077,0-1.504-0.464-1.504-1.438
	c0-0.983,0.427-1.433,1.504-1.433c1.078,0,1.492,0.449,1.492,1.433C65.049,44.895,64.63,45.358,63.557,45.358z M69.662,42.193h0.347
	v3.458h-0.253l-2.588-2.687l-0.241-0.268l-0.013,0.005l0.009,0.373v2.576h-0.357v-3.463h0.37l2.483,2.61l0.247,0.268l0.008-0.01
	l-0.008-0.369L69.662,42.193z M72.706,42.188l-1.863,3.463h0.423l0.453-0.871h2.396l0.449,0.871h0.445l-1.869-3.463H72.706z
	 M71.896,44.439l0.859-1.641l0.167-0.331h0.012l0.158,0.331l0.845,1.641H71.896z M76.218,45.274h2.411l-0.012,0.377h-2.781v-3.463
	h0.382V45.274z M82.051,44.641c0,0.595-0.505,1.086-1.491,1.086c-0.537,0-0.977-0.13-1.349-0.328l0.063-0.362
	c0.388,0.216,0.791,0.337,1.295,0.337c0.732,0,1.111-0.321,1.111-0.704c0-0.905-2.424-0.301-2.424-1.551
	c0-0.48,0.398-0.993,1.424-0.993c0.463,0,0.896,0.082,1.234,0.229l-0.063,0.349c-0.391-0.144-0.745-0.223-1.164-0.223
	c-0.782,0-1.062,0.347-1.062,0.614C79.625,43.963,82.051,43.339,82.051,44.641z M42.999,32.297h1.718l-2.804,8.397h-1.704
	c0,0-2.018-5.512-2.211-6.043c-0.203,0.527-2.302,6.043-2.302,6.043h-1.628l-2.72-8.397h1.745c0,0,1.704,5.342,1.89,5.924
	c0.144-0.396,1.261-3.493,1.85-5.11c0.28-0.77,0.767-0.698,0.767-0.698s0.863-0.007,1,0.02c0.451,0.008,0.622,0.692,0.609,0.668
	c0.583,1.618,1.688,4.734,1.832,5.131C41.229,37.653,42.999,32.297,42.999,32.297z M45.526,38.965v-4.96
	c0,0-0.067-1.686,1.883-1.686c0.047,0,6.632,0,6.632,0s-0.084,1.467-0.69,1.467c-1.419,0-4.616-0.001-5.608-0.001
	c-0.511,0-0.507,0.457-0.507,0.457v1.423c0.242,0,4.822,0,4.822,0v1.47c0,0-4.58,0-4.822,0v1.583c0,0-0.059,0.519,0.507,0.519
	c1.081,0,4.203-0.003,5.625-0.004c0.783,0.036,0.722,1.468,0.722,1.468s-6.397,0-6.643,0C45.553,40.7,45.526,38.965,45.526,38.965z
	 M81.532,40.694l-3.614-7.569c0,0-0.341-0.832-1.223-0.832l-1.363,0.001c-0.874,0-1.225,0.832-1.225,0.832l-3.614,7.569h1.957
	l0.757-1.609l5.612-0.002l0.76,1.61H81.532z M73.728,37.813c0,0,1.167-2.604,1.753-3.707c0.083-0.159,0.242-0.373,0.527-0.378
	c0.336,0.006,0.444,0.203,0.533,0.372c0.592,1.102,1.762,3.712,1.762,3.712L73.728,37.813z M56.784,40.7
	c-1.733,0-1.643-1.707-1.643-1.707v-6.69h1.654c0,0-0.002,4.904-0.002,6.464c0,0.271,0.219,0.478,0.493,0.478
	c0.997,0.001,3.226,0.001,4.37,0.001c0.787,0,0.707,1.455,0.707,1.455S57.019,40.7,56.784,40.7z M65.303,39.244
	c0.993,0,3.808,0,4.951,0c-0.396,0.87-0.702,1.454-0.702,1.454s-4.519,0-4.753,0c-1.733,0-1.646-1.706-1.646-1.706v-6.691h1.655
	c0,0-0.002,4.904-0.002,6.466C64.807,39.035,65.027,39.244,65.303,39.244z M72.132,24.245c1.751,0.182,2.657,1.385,2.811,2.708
	c0.052,0.428-0.149,0.552-0.294,0.304c-0.947-1.626-2.81-1.954-6.105-0.581c-2.87,1.192-6.014,3.095-10.057,2.702
	c-0.863-0.083-2.82-0.143-5.985-3.237c-0.639-0.625-1.377-1.435-1.998-2.077c-0.425-0.435-0.897-0.831-1.388-1.192
	c-0.528-0.392-0.902-0.331-0.902-0.487c0.005-0.16,0.336-0.2,0.463-0.211c0.399-0.03,0.81,0.091,1.173,0.243
	c0.709,0.293,1.283,0.793,1.863,1.28c1.545,1.3,3.986,4.415,8.733,3.894c1.862-0.205,3.335-0.844,5.026-1.535
	C66.269,25.73,69.749,24,72.132,24.245z M45.781,30.943c-0.101-0.146-0.508-1.071-1.129-1.576c-1.564-1.271-3.646-0.793-5.489-0.713
	c-0.471,0.022-1.023,0.062-1.458-0.154c-0.41-0.206-0.556-0.627-0.547-1.06c0.005-0.262,0.057-0.522,0.121-0.773
	c0.066-0.254,0.085-0.393-0.146-0.569c-0.389-0.3,0.108-0.813,0.407-0.941c-0.183-0.119-0.357-0.262-0.405-0.484
	c-0.021-0.097-0.02-0.197-0.005-0.293c0.013-0.086,0.125-0.139,0.181-0.196c0.114-0.11,0.22-0.264,0.203-0.428
	c-0.021-0.198-0.239-0.315-0.372-0.444c-0.235-0.228-0.541-0.663-0.324-1.005c0.074-0.115,0.251-0.195,0.364-0.271
	c0.203-0.135,1.51-0.981,1.884-1.351c0.202-0.199,0.289-0.377,0.336-0.652c0.041-0.242,0.087-0.483,0.143-0.721
	c0.171-0.743,0.417-1.505,0.965-2.062c0.477-0.485,1.159-0.847,1.227-0.885c0.034-0.029,0.067-0.06,0.093-0.098
	c0.075-0.104,0.094-0.237,0.136-0.354c0.271-0.748,0.936-1.303,1.639-1.639c1.425-0.68,3.028-0.638,4.493-0.109
	c1.513,0.545,2.804,1.47,4.106,2.384c1.283,0.902,2.541,1.881,3.938,2.6c3.955,2.038,5.983,0.737,7.638-0.002
	c0.028-0.014,2.907-1.423,4.729-1.482c1.872-0.06,2.866,1.076,3.137,1.989c0.131,0.45,0.037,0.694-0.152,0.485
	c-1.058-1.159-2.185-1.612-6.119,0.105c-3.229,1.41-5.907,3.002-10.28,0.322c-1.557-0.957-3.044-2.009-4.532-3.06
	c-1.347-0.953-2.813-2.031-4.538-2.071c-1.14-0.026-2.293,0.255-3.021,1.169c-0.137,0.175-0.241,0.379-0.425,0.513
	c-0.133,0.098-1.538,0.855-1.797,2.094c-0.103,0.492-0.05,1.065-0.302,1.513c-0.256,0.464-1.586,1.421-1.812,1.577
	c-0.098,0.066-0.496,0.274-0.476,0.394c0.041,0.25,0.287,0.437,0.483,0.57c0.168,0.112,0.251,0.305,0.248,0.503
	c-0.006,0.24-0.126,0.469-0.305,0.627c-0.146,0.13,0.156,0.383,0.277,0.435c0.098,0.042,0.2,0.095,0.178,0.226
	c-0.021,0.119-0.141,0.133-0.211,0.211c-0.071,0.079-0.122,0.18-0.151,0.28c-0.03,0.101-0.013,0.098,0.06,0.167
	c0.04,0.034,0.077,0.075,0.104,0.119c0.052,0.075,0.087,0.166,0.084,0.257c-0.007,0.187-0.174,0.378-0.239,0.553
	c-0.135,0.368-0.142,0.822,0.327,0.91c0.4,0.075,0.855-0.018,1.259-0.038c0.896-0.049,1.797-0.094,2.685,0.047
	c0.807,0.13,1.583,0.385,2.132,1.01c0.558,0.633,0.806,1.475,0.899,2.293C46.041,31.04,45.857,31.054,45.781,30.943z M70.702,20.891
	c1.513,0.134,2.548,0.924,2.855,2.452c0.101,0.51-0.106,0.563-0.206,0.418c-1.349-1.982-3.451-1.65-7.454,0.193
	c-0.021,0.01-0.031,0.018-0.031,0.018V23.97c-6.168,2.84-8.479,1.8-10.744,0.649c-1.871-0.951-3.59-3.005-5.478-4.649
	c-1.525-1.331-2.801-1.593-3.69-1.497c-0.206,0.022-0.41,0.056-0.615,0.092c-0.1,0.019-0.288,0.059-0.343-0.066
	c-0.076-0.173,0.408-0.45,0.526-0.518c0.32-0.185,0.679-0.292,1.047-0.334c1.583-0.191,2.974,0.773,4.142,1.712
	c1.161,0.938,4.708,3.988,7.71,4.463c1.822,0.288,2.903,0.339,7.724-1.829C66.146,21.993,68.896,20.728,70.702,20.891z"/>
</svg>
